<svg width="44" height="26" viewBox="0 0 44 26" fill="none" xmlns="http://www.w3.org/2000/svg">
<path fill-rule="evenodd" clip-rule="evenodd" d="M31.1956 0.29929C31.5826 -0.094737 32.2158 -0.100441 32.6098 0.286549L43.7007 12.2865C43.8922 12.4746 44 12.7317 44 13C44 13.2683 43.8922 13.5254 43.7007 13.7134L32.6098 25.7134C32.2158 26.1004 31.5826 26.0947 31.1956 25.7007C30.8087 25.3067 30.8144 24.6735 31.2084 24.2865L40.5547 14L1 14C0.447717 14 1.18478e-06 13.5523 1.1365e-06 13C1.08821e-06 12.4477 0.447717 12 1 12L40.5547 12L31.2084 1.71345C30.8144 1.32646 30.8087 0.693316 31.1956 0.29929Z" fill="#ED1A40"/>
</svg>
