<svg width="24" height="24" viewBox="0 0 24 24" fill="none" xmlns="http://www.w3.org/2000/svg">
<path fill-rule="evenodd" clip-rule="evenodd" d="M12.1469 3.61031C12.094 3.58977 12.0376 3.58053 11.9812 3.58304C11.9249 3.58556 11.8699 3.59976 11.8197 3.62463C11.7712 3.64867 11.7281 3.68221 11.6929 3.72323C10.4231 5.29794 9.54186 7.15006 9.12054 9.13013L9.11872 9.13872C8.71451 10.9597 8.7163 12.8484 9.12421 14.6706L9.12622 14.6796C9.54872 16.6523 10.427 18.4997 11.6908 20.0738C11.7266 20.1154 11.7704 20.1493 11.8195 20.1737C11.8706 20.199 11.9262 20.2133 11.9828 20.2158C12.0394 20.2183 12.0957 20.2089 12.1481 20.1884C12.2005 20.1679 12.2479 20.1368 12.2875 20.0969L12.2903 20.0941L13.7806 18.6038C13.7865 18.5979 13.7924 18.5921 13.7984 18.5864C13.87 18.5183 13.9142 18.4261 13.9223 18.3269C13.9303 18.2287 13.9023 18.1303 13.8431 18.0504C13.3838 17.4512 12.9936 16.8023 12.6797 16.1158L12.6787 16.1136C12.6463 16.0424 12.5942 15.9818 12.5284 15.9392C12.4633 15.8969 12.3877 15.8741 12.3106 15.8733L11.0513 15.872C10.6018 15.8716 10.2079 15.5713 10.0883 15.138C9.50152 13.0114 9.49922 10.7667 10.0819 8.64066C10.2011 8.20585 10.5965 7.90456 11.0474 7.905L12.3067 7.90625C12.3837 7.90553 12.4586 7.88295 12.5228 7.84139C12.5874 7.79948 12.6387 7.7399 12.6706 7.66959L12.6716 7.66739C12.9842 6.98132 13.3734 6.33284 13.8316 5.73428C13.8891 5.65657 13.9169 5.56037 13.9095 5.46299C13.902 5.36447 13.8589 5.27157 13.7878 5.20188L13.7808 5.195L12.2883 3.7024C12.2882 3.70234 12.2883 3.70246 12.2883 3.7024C12.248 3.66228 12.1997 3.63081 12.1469 3.61031ZM11.8922 1.58503C12.2259 1.57015 12.5591 1.62494 12.8705 1.74579C13.1819 1.86664 13.4648 2.05091 13.7011 2.28686L15.192 3.77772C15.6065 4.18597 15.8595 4.73056 15.9037 5.31092C15.9481 5.89318 15.7793 6.47183 15.4283 6.93874L15.4227 6.94617C15.0548 7.42614 14.7424 7.94629 14.4915 8.49677L13.5815 8.08208L14.4925 8.49457C14.3027 8.9138 13.9965 9.26967 13.6102 9.51991C13.224 9.77015 12.7741 9.90413 12.314 9.90624L12.3084 9.90627L11.8379 9.90579C11.5812 11.2151 11.5828 12.5628 11.8426 13.8728L12.3219 13.8733C12.7819 13.8763 13.2314 14.0112 13.6173 14.2615C14.0026 14.5117 14.3086 14.8668 14.4989 15.285C14.7509 15.8359 15.0644 16.3568 15.4333 16.8376L15.4388 16.8447C15.7938 17.316 15.9637 17.9014 15.9156 18.4897C15.8679 19.0734 15.609 19.6195 15.1872 20.0256L13.7074 21.5054C13.7069 21.5059 13.7063 21.5065 13.7058 21.5071C13.47 21.7442 13.1874 21.9296 12.876 22.0513C12.5638 22.1733 12.2296 22.2286 11.8948 22.2138C11.56 22.1991 11.2321 22.1146 10.9319 21.9659C10.6316 21.8172 10.3657 21.6075 10.1511 21.3503L10.1396 21.3363C8.67721 19.5182 7.66062 17.3833 7.1715 15.1029C6.70084 12.9973 6.69865 10.8147 7.16525 8.70959C7.65307 6.4203 8.67323 4.27889 10.1433 2.45873L10.1533 2.44659C10.3673 2.18994 10.6325 1.98079 10.9319 1.83246C11.2314 1.68413 11.5584 1.59991 11.8922 1.58503Z" fill="white"/>
</svg>
